<svg width="160" height="160" viewBox="0 0 160 160" fill="none" xmlns="http://www.w3.org/2000/svg">
<g clip-path="url(#clip0_29_65)">
<path d="M141.542 160H18.4577C8.26482 160 0 151.732 0 141.532V18.4578C0 8.26348 8.26482 0 18.4577 0H141.542C151.737 0 160 8.26348 160 18.4578V141.532C160 151.732 151.737 160 141.542 160ZM79.9993 49.2289C63.0046 49.2289 49.2299 63.0023 49.2299 79.9972C49.2299 96.9892 63.0046 110.77 79.9993 110.77C96.994 110.77 110.772 96.9892 110.772 79.9972C110.772 63.0023 96.994 49.2289 79.9993 49.2289ZM141.542 24.6109C141.542 21.2142 138.786 18.4578 135.382 18.4578H116.925C113.525 18.4578 110.772 21.2142 110.772 24.6109V43.0758C110.772 46.4725 113.525 49.2289 116.925 49.2289H135.382C138.786 49.2289 141.542 46.4725 141.542 43.0758V24.6109ZM141.542 67.6853H127.614C128.628 71.6248 129.228 75.741 129.228 79.9972C129.228 107.191 107.188 129.229 79.9993 129.229C52.8117 129.229 30.7708 107.191 30.7708 79.9972C30.7708 75.741 31.373 71.6248 32.3879 67.6853H18.4577V135.383C18.4577 138.777 21.214 141.532 24.6178 141.532H135.382C138.786 141.532 141.542 138.777 141.542 135.383V67.6853Z" fill="url(#paint0_linear_29_65)"/>
</g>
<defs>
<linearGradient id="paint0_linear_29_65" x1="165.648" y1="74.7651" x2="-11.603" y2="73.4233" gradientUnits="userSpaceOnUse">
<stop stop-color="#9EF23A"/>
<stop offset="1" stop-color="#4BA42A"/>
</linearGradient>
<clipPath id="clip0_29_65">
<rect width="160" height="160" fill="white"/>
</clipPath>
</defs>
</svg>
