<svg width="583" height="203" viewBox="0 0 583 203" fill="none" xmlns="http://www.w3.org/2000/svg">
<path d="M71.6462 202.152L59.5321 185.865C55.9427 186.583 52.443 186.942 49.0331 186.942C40.1494 186.942 31.9835 184.878 24.5356 180.751C17.1773 176.623 11.2997 170.88 6.90272 163.521C2.59546 156.073 0.441833 147.728 0.441833 138.486C0.441833 129.243 2.59546 120.942 6.90272 113.584C11.2997 106.226 17.1773 100.483 24.5356 96.3551C31.9835 92.2273 40.1494 90.1634 49.0331 90.1634C57.9168 90.1634 66.0378 92.2273 73.3961 96.3551C80.844 100.483 86.6768 106.226 90.8943 113.584C95.2016 120.942 97.3552 129.243 97.3552 138.486C97.3552 146.562 95.6951 153.965 92.3749 160.695C89.1445 167.335 84.6129 172.854 78.7801 177.251L99.5088 202.152H71.6462ZM23.9972 138.486C23.9972 146.831 26.2405 153.516 30.7273 158.541C35.3037 163.477 41.4057 165.944 49.0331 165.944C56.5708 165.944 62.583 163.432 67.0698 158.407C71.6462 153.381 73.9345 146.741 73.9345 138.486C73.9345 130.14 71.6462 123.5 67.0698 118.564C62.583 113.539 56.5708 111.027 49.0331 111.027C41.4057 111.027 35.3037 113.494 30.7273 118.43C26.2405 123.365 23.9972 130.05 23.9972 138.486Z" fill="white"/>
<path d="M184.589 110.892V186H161.572V175.77C159.239 179.09 156.053 181.782 152.015 183.846C148.067 185.821 143.67 186.808 138.824 186.808C133.081 186.808 128.011 185.551 123.614 183.039C119.217 180.436 115.807 176.712 113.384 171.867C110.962 167.021 109.75 161.323 109.75 154.772V110.892H132.632V151.676C132.632 156.702 133.934 160.605 136.536 163.387C139.138 166.169 142.638 167.56 147.035 167.56C151.522 167.56 155.066 166.169 157.668 163.387C160.271 160.605 161.572 156.702 161.572 151.676V110.892H184.589Z" fill="white"/>
<path d="M225.888 110.892V186H202.872V110.892H225.888ZM230.061 92.1825L197.622 105.777V89.8942L230.061 74.2804V92.1825Z" fill="white"/>
<path d="M340.204 110.085C349.537 110.085 356.94 112.911 362.414 118.564C367.977 124.218 370.759 132.069 370.759 142.12V186H347.877V145.216C347.877 140.37 346.576 136.646 343.973 134.044C341.461 131.352 337.961 130.006 333.474 130.006C328.988 130.006 325.443 131.352 322.841 134.044C320.328 136.646 319.072 140.37 319.072 145.216V186H296.19V145.216C296.19 140.37 294.888 136.646 292.286 134.044C289.774 131.352 286.274 130.006 281.787 130.006C277.3 130.006 273.756 131.352 271.154 134.044C268.641 136.646 267.385 140.37 267.385 145.216V186H244.368V110.892H267.385V120.314C269.718 117.174 272.769 114.706 276.538 112.911C280.307 111.027 284.569 110.085 289.325 110.085C294.978 110.085 300.003 111.296 304.4 113.719C308.887 116.142 312.387 119.596 314.899 124.083C317.502 119.955 321.046 116.59 325.533 113.988C330.019 111.386 334.91 110.085 340.204 110.085Z" fill="white"/>
<path d="M398.432 103.085C394.394 103.085 391.074 101.919 388.472 99.5856C385.959 97.1627 384.703 94.2015 384.703 90.7018C384.703 87.1125 385.959 84.1512 388.472 81.8181C391.074 79.3953 394.394 78.1839 398.432 78.1839C402.381 78.1839 405.611 79.3953 408.124 81.8181C410.726 84.1512 412.027 87.1125 412.027 90.7018C412.027 94.2015 410.726 97.1627 408.124 99.5856C405.611 101.919 402.381 103.085 398.432 103.085ZM409.873 110.892V186H386.857V110.892H409.873Z" fill="white"/>
<path d="M421.977 148.446C421.977 140.639 423.547 133.819 426.688 127.987C429.919 122.154 434.361 117.667 440.014 114.526C445.757 111.386 452.307 109.815 459.666 109.815C469.088 109.815 476.94 112.283 483.221 117.218C489.592 122.154 493.765 129.108 495.739 138.082H471.241C469.178 132.339 465.184 129.467 459.262 129.467C455.044 129.467 451.679 131.127 449.167 134.447C446.654 137.678 445.398 142.344 445.398 148.446C445.398 154.548 446.654 159.259 449.167 162.579C451.679 165.81 455.044 167.425 459.262 167.425C465.184 167.425 469.178 164.553 471.241 158.81H495.739C493.765 167.604 489.592 174.514 483.221 179.539C476.85 184.564 468.998 187.077 459.666 187.077C452.307 187.077 445.757 185.506 440.014 182.366C434.361 179.225 429.919 174.738 426.688 168.906C423.547 163.073 421.977 156.253 421.977 148.446Z" fill="white"/>
<path d="M503.474 148.311C503.474 140.594 504.91 133.819 507.782 127.987C510.743 122.154 514.736 117.667 519.761 114.526C524.786 111.386 530.395 109.815 536.586 109.815C541.881 109.815 546.502 110.892 550.45 113.046C554.488 115.199 557.584 118.026 559.738 121.526V110.892H582.755V186H559.738V175.366C557.495 178.866 554.354 181.693 550.316 183.846C546.367 186 541.746 187.077 536.452 187.077C530.35 187.077 524.786 185.506 519.761 182.366C514.736 179.135 510.743 174.604 507.782 168.771C504.91 162.848 503.474 156.029 503.474 148.311ZM559.738 148.446C559.738 142.703 558.123 138.171 554.892 134.851C551.752 131.531 547.893 129.871 543.317 129.871C538.74 129.871 534.837 131.531 531.606 134.851C528.465 138.082 526.895 142.568 526.895 148.311C526.895 154.054 528.465 158.631 531.606 162.041C534.837 165.361 538.74 167.021 543.317 167.021C547.893 167.021 551.752 165.361 554.892 162.041C558.123 158.721 559.738 154.189 559.738 148.446Z" fill="white"/>
<path d="M8.59997 11.275V28.75H27.65V34.375H8.59997V52.375H29.9V58H1.77497V5.64999H29.9V11.275H8.59997Z" fill="white"/>
<path d="M76.6771 16.9V58H69.8521V51.925C68.5521 54.025 66.7271 55.675 64.3771 56.875C62.0771 58.025 59.5271 58.6 56.7271 58.6C53.5271 58.6 50.6521 57.95 48.1021 56.65C45.5521 55.3 43.5271 53.3 42.0271 50.65C40.5771 48 39.8521 44.775 39.8521 40.975V16.9H46.6021V40.075C46.6021 44.125 47.6271 47.25 49.6771 49.45C51.7271 51.6 54.5271 52.675 58.0771 52.675C61.7271 52.675 64.6021 51.55 66.7021 49.3C68.8021 47.05 69.8521 43.775 69.8521 39.475V16.9H76.6771Z" fill="white"/>
<path d="M145.696 35.875C145.696 37.175 145.621 38.55 145.471 40H112.621C112.871 44.05 114.246 47.225 116.746 49.525C119.296 51.775 122.371 52.9 125.971 52.9C128.921 52.9 131.371 52.225 133.321 50.875C135.321 49.475 136.721 47.625 137.521 45.325H144.871C143.771 49.275 141.571 52.5 138.271 55C134.971 57.45 130.871 58.675 125.971 58.675C122.071 58.675 118.571 57.8 115.471 56.05C112.421 54.3 110.021 51.825 108.271 48.625C106.521 45.375 105.646 41.625 105.646 37.375C105.646 33.125 106.496 29.4 108.196 26.2C109.896 23 112.271 20.55 115.321 18.85C118.421 17.1 121.971 16.225 125.971 16.225C129.871 16.225 133.321 17.075 136.321 18.775C139.321 20.475 141.621 22.825 143.221 25.825C144.871 28.775 145.696 32.125 145.696 35.875ZM138.646 34.45C138.646 31.85 138.071 29.625 136.921 27.775C135.771 25.875 134.196 24.45 132.196 23.5C130.246 22.5 128.071 22 125.671 22C122.221 22 119.271 23.1 116.821 25.3C114.421 27.5 113.046 30.55 112.696 34.45H138.646Z" fill="white"/>
<path d="M174.73 16.15C179.73 16.15 183.78 17.675 186.88 20.725C189.98 23.725 191.53 28.075 191.53 33.775V58H184.78V34.75C184.78 30.65 183.755 27.525 181.705 25.375C179.655 23.175 176.855 22.075 173.305 22.075C169.705 22.075 166.83 23.2 164.68 25.45C162.58 27.7 161.53 30.975 161.53 35.275V58H154.705V16.9H161.53V22.75C162.88 20.65 164.705 19.025 167.005 17.875C169.355 16.725 171.93 16.15 174.73 16.15Z" fill="white"/>
<path d="M217.228 58.675C214.078 58.675 211.253 58.15 208.753 57.1C206.253 56 204.278 54.5 202.828 52.6C201.378 50.65 200.578 48.425 200.428 45.925H207.478C207.678 47.975 208.628 49.65 210.328 50.95C212.078 52.25 214.353 52.9 217.153 52.9C219.753 52.9 221.803 52.325 223.303 51.175C224.803 50.025 225.553 48.575 225.553 46.825C225.553 45.025 224.753 43.7 223.153 42.85C221.553 41.95 219.078 41.075 215.728 40.225C212.678 39.425 210.178 38.625 208.228 37.825C206.328 36.975 204.678 35.75 203.278 34.15C201.928 32.5 201.253 30.35 201.253 27.7C201.253 25.6 201.878 23.675 203.128 21.925C204.378 20.175 206.153 18.8 208.453 17.8C210.753 16.75 213.378 16.225 216.328 16.225C220.878 16.225 224.553 17.375 227.353 19.675C230.153 21.975 231.653 25.125 231.853 29.125H225.028C224.878 26.975 224.003 25.25 222.403 23.95C220.853 22.65 218.753 22 216.103 22C213.653 22 211.703 22.525 210.253 23.575C208.803 24.625 208.078 26 208.078 27.7C208.078 29.05 208.503 30.175 209.353 31.075C210.253 31.925 211.353 32.625 212.653 33.175C214.003 33.675 215.853 34.25 218.203 34.9C221.153 35.7 223.553 36.5 225.403 37.3C227.253 38.05 228.828 39.2 230.128 40.75C231.478 42.3 232.178 44.325 232.228 46.825C232.228 49.075 231.603 51.1 230.353 52.9C229.103 54.7 227.328 56.125 225.028 57.175C222.778 58.175 220.178 58.675 217.228 58.675Z" fill="white"/>
<path d="M245.388 10.225C244.088 10.225 242.988 9.77499 242.088 8.87499C241.188 7.97499 240.738 6.87499 240.738 5.57499C240.738 4.27499 241.188 3.17499 242.088 2.27499C242.988 1.37499 244.088 0.924988 245.388 0.924988C246.638 0.924988 247.688 1.37499 248.538 2.27499C249.438 3.17499 249.888 4.27499 249.888 5.57499C249.888 6.87499 249.438 7.97499 248.538 8.87499C247.688 9.77499 246.638 10.225 245.388 10.225ZM248.688 16.9V58H241.863V16.9H248.688Z" fill="white"/>
<path d="M280.345 16.15C285.345 16.15 289.395 17.675 292.495 20.725C295.595 23.725 297.145 28.075 297.145 33.775V58H290.395V34.75C290.395 30.65 289.37 27.525 287.32 25.375C285.27 23.175 282.47 22.075 278.92 22.075C275.32 22.075 272.445 23.2 270.295 25.45C268.195 27.7 267.145 30.975 267.145 35.275V58H260.32V16.9H267.145V22.75C268.495 20.65 270.32 19.025 272.62 17.875C274.97 16.725 277.545 16.15 280.345 16.15Z" fill="white"/>
<path d="M326.219 58.675C322.369 58.675 318.869 57.8 315.719 56.05C312.619 54.3 310.169 51.825 308.369 48.625C306.619 45.375 305.744 41.625 305.744 37.375C305.744 33.175 306.644 29.475 308.444 26.275C310.294 23.025 312.794 20.55 315.944 18.85C319.094 17.1 322.619 16.225 326.519 16.225C330.419 16.225 333.944 17.1 337.094 18.85C340.244 20.55 342.719 23 344.519 26.2C346.369 29.4 347.294 33.125 347.294 37.375C347.294 41.625 346.344 45.375 344.444 48.625C342.594 51.825 340.069 54.3 336.869 56.05C333.669 57.8 330.119 58.675 326.219 58.675ZM326.219 52.675C328.669 52.675 330.969 52.1 333.119 50.95C335.269 49.8 336.994 48.075 338.294 45.775C339.644 43.475 340.319 40.675 340.319 37.375C340.319 34.075 339.669 31.275 338.369 28.975C337.069 26.675 335.369 24.975 333.269 23.875C331.169 22.725 328.894 22.15 326.444 22.15C323.944 22.15 321.644 22.725 319.544 23.875C317.494 24.975 315.844 26.675 314.594 28.975C313.344 31.275 312.719 34.075 312.719 37.375C312.719 40.725 313.319 43.55 314.519 45.85C315.769 48.15 317.419 49.875 319.469 51.025C321.519 52.125 323.769 52.675 326.219 52.675Z" fill="white"/>
</svg>
