<svg width="161" height="178" viewBox="0 0 161 178" fill="none" xmlns="http://www.w3.org/2000/svg">
<path fill-rule="evenodd" clip-rule="evenodd" d="M54.4928 165.13C56.9153 164.437 81.0396 165 85.6106 165C90.8017 165 96.0072 165 101.198 165C105.524 165 108.754 164.336 108.711 169.288C108.697 171.28 108.004 170.76 106.26 170.746C90.8882 170.573 74.9833 170.746 59.5109 170.746C58.2419 170.746 52.5462 171.41 52.1857 170.183C51.6233 168.306 52.402 165.736 54.5072 165.13H54.4928ZM34.0745 108.072C36.0932 105.098 28.8834 101.041 27.6865 105.704C26.5329 110.194 31.4789 111.898 34.0745 108.072ZM88.9272 157.795C88.0331 158.214 78.8189 157.969 77.0885 157.969C71.3351 157.969 70.7294 159.008 72.777 152.396C73.7143 149.378 74.32 145.985 75.2572 142.91C76.0936 140.138 75.8484 141.033 79.4966 141.033C80.7367 141.033 84.2984 140.874 85.2213 141.192L88.9416 157.781L88.9272 157.795ZM84.0533 61.0047C89.8788 60.3405 89.5616 62.7517 93.7578 65.4515C96.0938 66.953 100.751 69.6384 100.968 72.5549C101.934 85.2312 96.1947 85.5344 85.726 85.4766C81.0107 85.4478 77.5067 85.39 73.1087 87.2669C70.8592 88.2198 70.9025 85.0724 70.8736 83.0944C70.8304 80.6689 70.6573 78.7487 70.8304 76.2798C71.3783 68.6278 75.8917 61.9287 84.0533 60.9902V61.0047ZM102.655 63.1415C102.164 62.9971 96.6417 58.8101 95.7621 58.1171C93.5991 56.4279 93.7578 57.1787 95.0555 54.8109C95.7333 53.5693 96.6561 52.4431 97.3771 51.2737C100.261 46.567 99.7708 46.6247 103.232 48.8914C104.01 49.4112 109.504 53.4682 109.807 54.1323L102.64 63.1415H102.655ZM42.5677 109.848C45.8554 112.042 149.274 109.27 153.701 110.642L153.657 128.458C153.383 130.205 150.629 133.078 148.207 133.54C145.726 134.016 140.218 133.699 137.421 133.699H27.9172C22.7117 133.699 12.1709 135.215 8.63805 131.071C6.22995 128.256 7.10955 114.727 7.22491 110.555C10.4549 110.454 14.2617 110.786 17.3908 110.541C18.7174 110.439 19.7412 109.357 20.1594 108.317C20.9958 106.224 20.0729 105.993 19.5249 104.592C16.4103 103.177 13.2812 103.683 9.95024 103.827C5.30709 104.029 7.05188 100.477 6.95094 96.9546C6.76348 90.3277 6.9221 83.4987 6.9221 76.8573C6.9221 70.1438 6.9221 63.4302 6.9221 56.7167C6.9221 50.4074 6.53276 42.741 6.95094 36.6049C7.48447 28.8663 14.6655 29.9058 20.2027 29.8336C26.8934 29.747 33.6275 29.8336 40.3038 29.8336C60.4193 29.8336 80.5781 29.8914 100.694 29.7614C105.164 29.7326 101.876 32.3313 100.477 34.266C99.0931 36.1862 97.9251 38.2508 96.5263 40.3154C94.1327 43.8382 90.2538 48.8626 88.4513 52.3565C87.1103 54.9553 83.8802 54.1468 80.78 54.8253C78.7036 55.2729 75.488 56.5434 73.7432 57.7706C64.4857 64.2821 62.0055 76.814 64.6011 87.4691C65.9132 92.8688 65.596 100.81 73.2096 95.2366C79.2803 90.7897 82.9718 92.5656 89.7347 92.5944C101.963 92.6522 110.557 83.1233 107.63 70.9812C107.01 68.4112 108.668 66.0723 110.629 64.412C112.374 62.9393 113.758 60.8026 115.272 59.0556C118.416 55.4462 121.256 51.5047 124.227 47.8663C128.264 42.9142 134.191 36.3162 137.925 31.3063C139.367 29.3716 138.863 29.8192 141.429 29.8192C146.101 29.8336 150.11 29.0829 152.864 33.3709C154.465 35.8542 153.888 39.3914 153.888 42.3078C153.874 48.9781 153.888 55.6483 153.888 62.3185C153.888 67.8626 154.595 99.9433 153.874 102.556C153.34 104.506 147.039 103.74 145.02 103.726C115.027 103.567 84.731 103.726 54.6947 103.711C51.3637 103.711 48.0184 103.668 44.7018 103.74C40.4047 103.841 41.3709 107.263 42.5677 109.862V109.848ZM130.398 6.9065C136.08 6.18461 140.781 11.1945 139.685 16.7819C139.079 19.9005 133.686 25.2713 131.739 28.0722C129.793 30.8731 125.625 35.5943 123.059 38.5829C121.992 39.839 115.344 49.1513 114.248 48.4294C112.518 47.3033 108.091 43.6072 105.942 42.1923C104.154 41.0229 104.313 41.1672 105.452 39.4925C107.947 35.8253 110.456 31.3785 113.109 27.9567C115.719 24.5927 118.142 19.4673 120.737 16.3777C123.722 12.826 125.063 7.58507 130.398 6.9065ZM117.392 8.82672C117.406 8.9711 110.557 19.1786 109.504 20.7234C107.11 24.2462 106.317 23.0768 101.862 23.0623H32.4595C26.2013 23.0623 18.7319 22.6869 12.6323 23.1056C-1.94604 24.1018 0.17366 40.2143 0.17366 50.2919V109.905C0.17366 115.06 -0.37429 124.704 0.476475 129.353C3.04319 143.401 18.4146 140.643 28.9987 140.643C34.5215 140.643 65.9132 140.268 68.5088 140.918L64.0387 157.954C59.3955 158.098 53.6565 157.088 49.7776 159.672C45.3651 162.603 45.3795 164.668 44.7595 170.356C41.0104 171.251 33.7717 169.028 31.2338 172.161C29.9216 173.778 30.5272 176.146 32.2287 177.228C33.5265 178.051 37.564 177.763 39.2512 177.763H100.002C105.712 177.763 125.452 178.643 129.331 177.012C131.062 174.557 130.038 170.818 126.765 170.544C123.621 170.284 119.353 170.558 116.065 170.544C115.647 153.536 99.468 159.412 96.7426 157.882C95.6756 157.275 93.7722 147.039 93.3973 145.22C92.8349 142.491 91.119 140.484 95.1709 140.73C97.7232 140.889 100.492 140.773 103.073 140.773C113.686 140.773 124.299 140.773 134.912 140.773C143.838 140.773 154.306 142.636 159.137 133.092C161.934 127.592 160.752 109.746 160.752 102.73C160.752 92.1036 160.752 81.4774 160.752 70.8512C160.752 60.2539 160.608 49.5556 160.752 38.9727C160.824 33.8329 160.045 30.8154 156.585 27.1338C151.869 22.095 146.404 23.8997 144.905 22.9613C144.905 22.8746 146.447 18.0091 146.649 16.8685C147.082 14.3997 146.548 12.2485 145.856 10.0106C144.732 6.35787 142.006 3.34038 138.488 1.60785C132.475 -1.33745 125.279 -0.153552 120.953 4.48096C120.16 5.31835 117.853 8.50909 117.392 8.85559V8.82672Z" fill="url(#paint0_linear_10_63)"/>
<defs>
<linearGradient id="paint0_linear_10_63" x1="-30.4935" y1="84.3706" x2="325.26" y2="110.18" gradientUnits="userSpaceOnUse">
<stop stop-color="#4CA223"/>
<stop offset="1" stop-color="#FFC600"/>
</linearGradient>
</defs>
</svg>
