<svg width="160" height="158" viewBox="0 0 160 158" fill="none" xmlns="http://www.w3.org/2000/svg">
<g clip-path="url(#clip0_31_72)">
<path fill-rule="evenodd" clip-rule="evenodd" d="M10.9373 27.3649V27.9899C12.9632 28.4617 35.9392 37.8665 38.4819 38.8836L80 55.3548C80.7393 55.3548 91.9924 50.6942 93.8387 49.9549L120.378 39.3982L79.081 23.6765L80.917 18.9894L128.343 37.3906L123.352 39.4411C125.002 40.0354 127.263 40.9728 128.25 41.2976C130.437 42.0205 129.996 41.5896 129.996 46.7403C131.497 46.7403 131.442 46.4278 132.496 46.4278C133.549 46.4278 133.494 46.7403 134.995 46.7403V38.3035C134.15 38.1054 132.975 37.6071 132.003 37.2334C130.819 36.7779 129.986 36.4042 128.746 36.1162L149.059 27.367L79.9959 0.0020752L19.7294 23.9747C18.3692 24.518 17.0111 25.0633 15.4875 25.6719C13.9415 26.2907 12.4935 27.0055 10.9332 27.369L10.9373 27.3649ZM0.000701904 134.864V137.364C0.000701904 147.951 9.72618 157.677 20.3135 157.677H156.562C158.645 157.677 159.852 156.014 159.999 154.256V153.535C159.897 152.311 159.27 151.145 158.053 150.561C156.803 149.963 154.869 150.177 153.125 150.177H36.2517C25.6746 150.177 12.5241 152.712 8.34558 140.895C5.89072 133.951 9.63836 126.413 15.8817 123.87C20.6607 121.922 29.2752 122.677 35.9392 122.677H152.812C154.459 122.677 156.687 122.857 157.839 122.392C159.195 121.844 159.889 120.621 159.999 119.332V118.597C159.85 116.839 158.641 115.178 156.562 115.178H19.6886C9.99576 115.178 0.000701904 125.173 0.000701904 134.866L0.000701904 134.864ZM12.4996 135.489V137.364C12.4996 141.028 16.6496 145.176 20.3115 145.176H156.248V127.675H20.3115C16.6476 127.675 12.4996 131.825 12.4996 135.487V135.489ZM77.1857 82.6768C90.3096 82.6768 103.011 81.3473 112.628 74.9936C114.662 73.6498 116.553 72.2957 118.25 70.6149L119.008 69.8082C120.579 68.156 119.999 67.7761 119.999 63.6118C119.999 57.3624 119.999 51.1109 119.999 44.8614C117.958 45.0309 81.544 60.4871 79.998 60.4871C78.4417 60.4871 42.06 45.033 39.9973 44.8614L40.0197 68.2765C40.2015 69.2772 40.3424 69.1445 41.4392 70.2943L42.0661 70.9172C50.2824 78.537 63.7493 82.6747 77.1837 82.6747L77.1857 82.6768ZM9.99781 91.7385V93.6134C9.99781 102.13 18.0445 110.176 26.5609 110.176H136.56C140.548 110.176 141.32 104.099 137.611 102.875C135.655 102.23 39.7665 102.671 30.9356 102.677C24.2654 102.681 18.6817 101.354 17.6054 93.4827C17.4236 92.1531 17.877 89.8596 18.3284 88.8201C20.1256 84.6701 24.0019 82.6482 29.0526 82.6707C36.554 82.7033 44.0594 82.6788 51.5588 82.6788L49.9127 81.8251C49.1836 81.5168 48.9303 81.3656 48.2257 81.0123L42.0028 77.2361C41.3718 76.7602 39.744 75.1774 39.0619 75.1774H26.563C18.0465 75.1774 9.99985 83.2241 9.99985 91.7406L9.99781 91.7385ZM22.4967 92.051C22.4967 95.5086 24.6044 97.6755 26.8714 97.6755H119.37C119.37 95.8048 120.483 89.6043 120.932 87.6764H31.246C29.2016 87.6764 26.612 87.3741 25.1824 88.1747C24.0428 88.8119 22.4967 90.4498 22.4967 92.051ZM126.246 56.7395V58.6143C126.246 60.9058 129.269 63.9264 131.558 63.9264H133.433C135.724 63.9264 138.745 60.9037 138.745 58.6143V56.7395C138.745 54.448 135.722 51.4274 133.433 51.4274H131.558C129.267 51.4274 126.246 54.45 126.246 56.7395ZM108.433 82.6768H121.869C121.869 79.9054 122.807 77.9488 122.807 75.1774C118.777 75.1774 120.693 75.7881 114.981 79.2253C111.807 81.1349 111.617 80.9633 109.193 82.1866C108.445 82.5645 108.874 82.2908 108.433 82.6768ZM139.874 92.6759C139.834 92.2287 139.613 91.665 139.586 91.5241C139.478 90.9604 139.541 90.4702 139.384 89.9249L138.863 86.9473C138.821 86.1937 138.659 86.0711 138.584 85.5279C138.441 84.4965 138.712 85.5095 138.334 83.9757C138.202 83.4365 138.345 82.9627 138.118 82.3929C137.842 81.6985 138.073 81.4616 137.901 80.8101C137.589 79.6235 137.783 80.7917 137.648 79.3642C137.589 78.729 137.383 78.5963 137.36 77.8529C137.33 76.8726 137.121 76.9154 137.066 76.3456L136.631 73.2801C136.5 72.6348 136.427 72.8553 136.36 71.7504C136.321 71.1173 136.092 70.909 136.063 70.2473C136.025 69.3568 135.918 69.4202 135.761 68.7482L133.235 69.2221C131.713 69.4814 131.313 69.1261 130.555 69.0546C129.236 68.93 129.62 68.7482 128.762 68.7482C128.605 69.4202 128.478 69.2507 128.462 70.1493C128.448 70.8641 128.215 71.0765 128.168 71.6545L127.169 77.6568C127.145 78.0448 127.2 78.1286 127.094 78.4819C127.028 78.7004 126.916 78.9496 126.885 79.1742C126.755 80.1035 127.065 79.3621 126.646 80.7346C126.495 81.2308 126.646 81.768 126.467 82.254C126.07 83.3242 126.369 83.0362 126.226 83.8144C126.062 84.7089 126.068 83.6694 125.958 85.3461C125.917 85.9547 125.697 86.1446 125.662 86.8492L125.164 89.8514C124.994 90.4171 125.039 90.7868 124.949 91.4383C124.886 91.8876 124.663 92.0244 124.663 92.9517C124.663 93.1824 124.733 93.2519 124.963 93.2519H139.566C139.852 93.2519 139.911 92.9945 139.883 92.6759H139.874Z" fill="url(#paint0_linear_31_72)"/>
</g>
<defs>
<linearGradient id="paint0_linear_31_72" x1="165.647" y1="73.6805" x2="-11.6019" y2="72.3189" gradientUnits="userSpaceOnUse">
<stop stop-color="#9EF23A"/>
<stop offset="1" stop-color="#4BA42A"/>
</linearGradient>
<clipPath id="clip0_31_72">
<rect width="160" height="157.676" fill="white"/>
</clipPath>
</defs>
</svg>
