<svg width="251" height="30" viewBox="0 0 251 30" fill="none" xmlns="http://www.w3.org/2000/svg">
<path d="M19.492 11.864C19.492 13.328 19.156 14.672 18.484 15.896C17.812 17.096 16.78 18.068 15.388 18.812C13.996 19.556 12.268 19.928 10.204 19.928H6.388V29H0.232V3.728H10.204C12.22 3.728 13.924 4.076 15.316 4.772C16.708 5.468 17.752 6.428 18.448 7.652C19.144 8.876 19.492 10.28 19.492 11.864ZM9.736 15.032C10.912 15.032 11.788 14.756 12.364 14.204C12.94 13.652 13.228 12.872 13.228 11.864C13.228 10.856 12.94 10.076 12.364 9.524C11.788 8.972 10.912 8.696 9.736 8.696H6.388V15.032H9.736ZM28.8528 12.26C29.5728 11.156 30.4728 10.292 31.5528 9.668C32.6328 9.02 33.8328 8.696 35.1528 8.696V15.212H33.4608C31.9248 15.212 30.7728 15.548 30.0048 16.22C29.2368 16.868 28.8528 18.02 28.8528 19.676V29H22.6968V8.912H28.8528V12.26ZM47.2393 29.288C45.2713 29.288 43.4953 28.868 41.9113 28.028C40.3513 27.188 39.1153 25.988 38.2033 24.428C37.3153 22.868 36.8713 21.044 36.8713 18.956C36.8713 16.892 37.3273 15.08 38.2393 13.52C39.1513 11.936 40.3993 10.724 41.9833 9.884C43.5673 9.044 45.3433 8.624 47.3113 8.624C49.2793 8.624 51.0553 9.044 52.6393 9.884C54.2233 10.724 55.4713 11.936 56.3833 13.52C57.2953 15.08 57.7513 16.892 57.7513 18.956C57.7513 21.02 57.2833 22.844 56.3473 24.428C55.4353 25.988 54.1753 27.188 52.5673 28.028C50.9833 28.868 49.2073 29.288 47.2393 29.288ZM47.2393 23.96C48.4153 23.96 49.4113 23.528 50.2273 22.664C51.0673 21.8 51.4873 20.564 51.4873 18.956C51.4873 17.348 51.0793 16.112 50.2633 15.248C49.4713 14.384 48.4873 13.952 47.3113 13.952C46.1113 13.952 45.1153 14.384 44.3233 15.248C43.5313 16.088 43.1353 17.324 43.1353 18.956C43.1353 20.564 43.5193 21.8 44.2873 22.664C45.0793 23.528 46.0633 23.96 47.2393 23.96ZM71.0972 14.024H67.7852V29H61.6292V14.024H59.3972V8.912H61.6292V8.336C61.6292 5.864 62.3372 3.992 63.7532 2.72C65.1692 1.424 67.2452 0.775999 69.9812 0.775999C70.4372 0.775999 70.7732 0.787998 70.9892 0.811998V6.032C69.8132 5.96 68.9852 6.128 68.5052 6.536C68.0252 6.944 67.7852 7.676 67.7852 8.732V8.912H71.0972V14.024ZM76.8698 29.288C75.7898 29.288 74.9018 28.976 74.2058 28.352C73.5338 27.704 73.1978 26.912 73.1978 25.976C73.1978 25.016 73.5338 24.212 74.2058 23.564C74.9018 22.916 75.7898 22.592 76.8698 22.592C77.9258 22.592 78.7898 22.916 79.4618 23.564C80.1578 24.212 80.5058 25.016 80.5058 25.976C80.5058 26.912 80.1578 27.704 79.4618 28.352C78.7898 28.976 77.9258 29.288 76.8698 29.288Z" fill="#FFC600"/>
<path d="M97.9349 8.66V13.772H106.179V18.524H97.9349V24.068H107.259V29H91.7789V3.728H107.259V8.66H97.9349ZM136.887 8.696C139.383 8.696 141.363 9.452 142.827 10.964C144.315 12.476 145.059 14.576 145.059 17.264V29H138.939V18.092C138.939 16.796 138.591 15.8 137.895 15.104C137.223 14.384 136.287 14.024 135.087 14.024C133.887 14.024 132.939 14.384 132.243 15.104C131.571 15.8 131.235 16.796 131.235 18.092V29H125.115V18.092C125.115 16.796 124.767 15.8 124.071 15.104C123.399 14.384 122.463 14.024 121.263 14.024C120.063 14.024 119.115 14.384 118.419 15.104C117.747 15.8 117.411 16.796 117.411 18.092V29H111.255V8.912H117.411V11.432C118.035 10.592 118.851 9.932 119.859 9.452C120.867 8.948 122.007 8.696 123.279 8.696C124.791 8.696 126.135 9.02 127.311 9.668C128.511 10.316 129.447 11.24 130.119 12.44C130.815 11.336 131.763 10.436 132.963 9.74C134.163 9.044 135.471 8.696 136.887 8.696ZM148.141 18.92C148.141 16.856 148.525 15.044 149.293 13.484C150.085 11.924 151.153 10.724 152.497 9.884C153.841 9.044 155.341 8.624 156.997 8.624C158.413 8.624 159.649 8.912 160.705 9.488C161.785 10.064 162.613 10.82 163.189 11.756V8.912H169.345V29H163.189V26.156C162.589 27.092 161.749 27.848 160.669 28.424C159.613 29 158.377 29.288 156.961 29.288C155.329 29.288 153.841 28.868 152.497 28.028C151.153 27.164 150.085 25.952 149.293 24.392C148.525 22.808 148.141 20.984 148.141 18.92ZM163.189 18.956C163.189 17.42 162.757 16.208 161.893 15.32C161.053 14.432 160.021 13.988 158.797 13.988C157.573 13.988 156.529 14.432 155.665 15.32C154.825 16.184 154.405 17.384 154.405 18.92C154.405 20.456 154.825 21.68 155.665 22.592C156.529 23.48 157.573 23.924 158.797 23.924C160.021 23.924 161.053 23.48 161.893 22.592C162.757 21.704 163.189 20.492 163.189 18.956ZM186.038 8.696C188.39 8.696 190.262 9.464 191.654 11C193.07 12.512 193.778 14.6 193.778 17.264V29H187.658V18.092C187.658 16.748 187.31 15.704 186.614 14.96C185.918 14.216 184.982 13.844 183.806 13.844C182.63 13.844 181.694 14.216 180.998 14.96C180.302 15.704 179.954 16.748 179.954 18.092V29H173.798V8.912H179.954V11.576C180.578 10.688 181.418 9.992 182.474 9.488C183.53 8.96 184.718 8.696 186.038 8.696ZM217.892 8.912V29H211.736V26.264C211.112 27.152 210.26 27.872 209.18 28.424C208.124 28.952 206.948 29.216 205.652 29.216C204.116 29.216 202.76 28.88 201.584 28.208C200.408 27.512 199.496 26.516 198.848 25.22C198.2 23.924 197.876 22.4 197.876 20.648V8.912H203.996V19.82C203.996 21.164 204.344 22.208 205.04 22.952C205.736 23.696 206.672 24.068 207.848 24.068C209.048 24.068 209.996 23.696 210.692 22.952C211.388 22.208 211.736 21.164 211.736 19.82V8.912H217.892ZM241.25 18.632C241.25 19.208 241.214 19.808 241.142 20.432H227.21C227.306 21.68 227.702 22.64 228.398 23.312C229.118 23.96 229.994 24.284 231.026 24.284C232.562 24.284 233.63 23.636 234.23 22.34H240.782C240.446 23.66 239.834 24.848 238.946 25.904C238.082 26.96 236.99 27.788 235.67 28.388C234.35 28.988 232.874 29.288 231.242 29.288C229.274 29.288 227.522 28.868 225.986 28.028C224.45 27.188 223.25 25.988 222.386 24.428C221.522 22.868 221.09 21.044 221.09 18.956C221.09 16.868 221.51 15.044 222.35 13.484C223.214 11.924 224.414 10.724 225.95 9.884C227.486 9.044 229.25 8.624 231.242 8.624C233.186 8.624 234.914 9.032 236.426 9.848C237.938 10.664 239.114 11.828 239.954 13.34C240.818 14.852 241.25 16.616 241.25 18.632ZM234.95 17.012C234.95 15.956 234.59 15.116 233.87 14.492C233.15 13.868 232.25 13.556 231.17 13.556C230.138 13.556 229.262 13.856 228.542 14.456C227.846 15.056 227.414 15.908 227.246 17.012H234.95ZM250.654 2.36V29H244.498V2.36H250.654Z" fill="white"/>
</svg>
