<svg width="160" height="160" viewBox="0 0 160 160" fill="none" xmlns="http://www.w3.org/2000/svg">
<path fill-rule="evenodd" clip-rule="evenodd" d="M44.5912 108.726L52.0173 115.409H99.6725L104.919 110.164V52.4588L120.656 36.7212L150.099 36.1364L115.411 0H44.5925V108.726H44.5912ZM120.301 115.409L71.2626 159.999H112.787L160 110.164V52.4588H124.493L120.303 57.4639L120.301 115.409ZM0.00123645 44.59V115.409L49.8375 159.999H62.4579L115.41 112.786L114.828 57.1226L123.35 47.7331L157.025 47.691L152.449 39.7765L122.391 39.7048L108.158 54.5001L108.559 109.747L90.9864 125.9H47.2125L34.0975 112.785V15.7375L0 44.5888L0.00123645 44.59Z" fill="url(#paint0_linear_29_59)"/>
<defs>
<linearGradient id="paint0_linear_29_59" x1="165.648" y1="74.7646" x2="-11.603" y2="73.4227" gradientUnits="userSpaceOnUse">
<stop stop-color="#9EF23A"/>
<stop offset="1" stop-color="#4BA42A"/>
</linearGradient>
</defs>
</svg>
